# xmcd CD database file
#
# Track frame offsets:
#	150
#	25097
#	41952
#	64190
#	82065
#	97515
#
# Disc length: 1542 seconds
#
# Revision: 0
# Processed by: cddbd v1.5.2PL0 Copyright (c) Steve Scherf et al.
# Submitted via: CDex 1.70beta2
#
DISCID=43060406
DTITLE=近藤房之助 - A LOW DOWN DIRTY SHAME
DYEAR=1900
DGENRE=Blues
TTITLE0=NOT THE BEST
TTITLE1=MY LAST WILL
TTITLE2=RED SKY BLUES
TTITLE3=DEPRESSING NIGHT
TTITLE4=MY STUPID DOG
TTITLE5=A CICADA
EXTD=
EXTT0=
EXTT1=
EXTT2=
EXTT3=
EXTT4=
EXTT5=
PLAYORDER=
